<svg width="124" height="30" viewBox="0 0 124 30" fill="none"
            xmlns="http://www.w3.org/2000/svg" class="">
            <path
              d="M15.67 29.98a15.25 15.25 0 01-14.23-8.53 14.7 14.7 0 01-.93-10.2c.28-1.09.76-2.11 1.27-3.1a15.3 15.3 0 014.8-5.61 14.46 14.46 0 017.3-2.49A15.3 15.3 0 0117.5.2c.46.09.91.2 1.37.31l.19.05c.24.08.49.13.73.22l.13.03.05.02c.3.1.57.21.86.32l.25.1c1.3.57 2.52 1.31 3.61 2.21a14.7 14.7 0 012.97 3.18c.52.76.92 1.58 1.27 2.43.13.37.28.73.37 1.11.15.71.3 1.42.34 2.15.03.6-.08 1.2-.16 1.79a13.7 13.7 0 01-1.8 4.98 12.95 12.95 0 01-5.26 4.78c-1.8.9-3.77 1.51-5.78 1.7 0 .83.05 1.65.03 2.47-2-.46-3.81-1.52-5.35-2.85a19.04 19.04 0 01-3.63-4.3c-.06-.1-.15-.22-.08-.34a11.04 11.04 0 014.44-4.8 15.03 15.03 0 014.58-1.84v2.68c1.8-.28 3.55-.92 5.05-1.95a10.85 10.85 0 003.93-4.82c.06-.16.15-.35.03-.5a19.76 19.76 0 00-5.12-5.48 9.72 9.72 0 00-3.99-1.7c-.03.6-.05 1.21-.05 1.81 0 .3.01.58-.04.87-.36.05-.73 0-1.1.04a10.8 10.8 0 00-4.93 1.8 17.7 17.7 0 00-4.47 4.23 11.12 11.12 0 00-2.4 6.35c-.07 2.07.49 4.15 1.53 5.94a13.23 13.23 0 004.39 4.3c1.61 1 3.39 1.74 5.22 2.24.33.1.67.14.98.26zm22.3-9.12L34.63 9.24h2.7l1.93 8.07h.1l2.12-8.07h2.31l2.13 8.1h.1l1.93-8.1h2.7L47.3 20.86h-2.4l-2.23-7.6h-.09l-2.21 7.6h-2.41zm16.37-5.04v5.04h-2.43V9.24h2.36v4.44h.1c.2-.51.52-.92.96-1.21.44-.3 1-.44 1.66-.44.6 0 1.14.13 1.59.4.45.26.8.63 1.06 1.12.25.5.38 1.08.37 1.76v5.55H57.6v-5.12c0-.54-.14-.95-.41-1.25a1.5 1.5 0 00-1.16-.45c-.33 0-.62.07-.87.2-.25.15-.45.35-.6.62-.13.27-.2.59-.2.96zm8.81-4.8c-.36 0-.67-.12-.93-.36a1.14 1.14 0 01-.38-.87c0-.33.12-.62.38-.86s.57-.36.93-.36c.36 0 .67.12.93.36.25.24.38.53.38.86 0 .34-.13.63-.38.87a1.3 1.3 0 01-.93.36zm-1.22 9.84v-8.72h2.43v8.72h-2.43zm9.01-8.72v1.82h-5.26v-1.82h5.26zm-4.07-2.09h2.43v8.13c0 .23.03.4.1.52.07.13.17.21.29.26.12.05.27.08.43.08.11 0 .23-.02.34-.04l.26-.04.39 1.8-.52.13a4.35 4.35 0 01-2.34-.14 2.14 2.14 0 01-1.02-.83 2.53 2.53 0 01-.36-1.42v-8.45zm9.55 10.98c-.9 0-1.67-.18-2.32-.54a3.71 3.71 0 01-1.5-1.56 5.11 5.11 0 01-.52-2.39c0-.9.17-1.68.52-2.36.35-.68.84-1.2 1.48-1.58a4.3 4.3 0 012.24-.57c.58 0 1.12.1 1.62.27a3.64 3.64 0 012.18 2.21c.21.56.32 1.2.32 1.95v.66h-7.4v-1.5h5.11c0-.35-.07-.66-.23-.93a1.65 1.65 0 00-.63-.63 1.84 1.84 0 00-.93-.23c-.36 0-.7.09-.97.26-.29.16-.5.39-.67.67-.16.28-.24.6-.24.94v1.43c0 .43.08.8.24 1.12.16.3.39.55.69.72.3.17.64.26 1.05.26.27 0 .52-.04.74-.12a1.5 1.5 0 00.94-.9l2.25.16c-.12.53-.35 1-.7 1.4-.35.4-.8.71-1.36.93-.55.22-1.19.33-1.91.33z"
              fill="#fff"></path>
            <path
              d="M88.4 12.58a1.44 1.44 0 00-.6-1.07 2.34 2.34 0 00-1.4-.38c-.4 0-.75.06-1.02.17-.28.11-.5.26-.64.46s-.22.42-.22.67c0 .2.04.39.14.54.1.16.23.3.4.4.17.12.37.21.59.3.22.07.46.14.72.2l1.05.25c.5.12.97.27 1.4.46.42.18.79.42 1.1.7a2.95 2.95 0 011 2.26 3.2 3.2 0 01-.55 1.85c-.36.52-.88.92-1.55 1.2-.67.29-1.49.43-2.44.43-.94 0-1.76-.14-2.45-.43a3.58 3.58 0 01-1.63-1.28 3.78 3.78 0 01-.62-2.1h2.4c.02.39.13.71.33.97s.47.46.8.59c.34.13.72.2 1.14.2a3 3 0 001.1-.19c.3-.12.55-.29.72-.5.17-.22.25-.47.25-.75a.97.97 0 00-.23-.66 1.8 1.8 0 00-.67-.45c-.3-.13-.65-.24-1.08-.34l-1.27-.32a5.33 5.33 0 01-2.33-1.12A2.6 2.6 0 0182 12.6c0-.7.19-1.32.57-1.84.38-.53.9-.94 1.57-1.24.67-.29 1.43-.44 2.28-.44.87 0 1.62.15 2.27.44.65.3 1.15.71 1.51 1.24.36.52.55 1.13.56 1.83H88.4zm5.85 8.28l-2.38-8.72h2.45L95.68 18h.08l1.4-5.86h2.42l1.43 5.83h.08l1.33-5.83h2.45l-2.38 8.72h-2.56l-1.5-5.48h-.12l-1.5 5.48h-2.56zm14.4.17c-.56 0-1.05-.1-1.49-.3-.44-.19-.78-.48-1.03-.86a2.57 2.57 0 01-.38-1.44c0-.49.09-.9.27-1.22.17-.33.42-.6.72-.8.31-.2.66-.35 1.06-.45.39-.1.8-.18 1.23-.22.51-.05.92-.1 1.23-.15.31-.04.54-.12.68-.21.14-.1.21-.23.21-.42v-.03c0-.36-.1-.64-.34-.84-.22-.2-.54-.3-.95-.3-.44 0-.79.1-1.05.3-.26.18-.43.42-.5.71l-2.25-.18a3.07 3.07 0 011.96-2.27 5.65 5.65 0 013.24-.15c.45.12.85.3 1.2.53a2.58 2.58 0 011.12 2.25v5.89h-2.3v-1.21h-.07a2.43 2.43 0 01-1.41 1.2c-.33.11-.71.17-1.15.17zm.7-1.67c.36 0 .67-.07.95-.21.27-.15.48-.34.64-.58.15-.24.23-.52.23-.82v-.93c-.07.05-.18.1-.3.13a5.06 5.06 0 01-.94.2l-.45.06c-.28.04-.53.11-.74.2-.21.1-.38.21-.5.37a.91.91 0 00-.17.57c0 .33.12.58.36.75.24.17.55.26.92.26zm6.12 4.77V12.14h2.39v1.47h.1c.11-.24.27-.48.47-.72a2.47 2.47 0 012.03-.86 3.31 3.31 0 013.06 1.99c.32.66.48 1.5.48 2.5 0 .97-.16 1.79-.47 2.45a3.29 3.29 0 01-3.08 2.03 2.8 2.8 0 01-1.2-.23c-.33-.15-.6-.35-.8-.59a2.78 2.78 0 01-.48-.71h-.08v4.66h-2.42zm2.37-7.63c0 .52.07.97.22 1.36.14.39.35.68.63.9.27.21.6.32 1 .32.39 0 .72-.11 1-.33a2 2 0 00.62-.9c.14-.4.21-.84.21-1.35 0-.5-.07-.95-.21-1.33a2 2 0 00-.62-.9c-.28-.21-.61-.32-1.01-.32s-.73.1-1 .31-.48.5-.62.89a3.9 3.9 0 00-.22 1.35z"
              fill="#FFD658"></path>
          </svg>